<svg xmlns="http://www.w3.org/2000/svg" viewBox="0 0 250 95.31"><defs><style>.cls-1{fill:#002f87;}.cls-2{fill:#c10230;}.cls-3{fill:#fff;}</style></defs><title>Asset 1</title><g id="Layer_2" data-name="Layer 2"><g id="Layer_1-2" data-name="Layer 1"><path class="cls-1" d="M244.08,52.63H103.35V42.16H244.08a5.24,5.24,0,0,1,5.23,5.24h0A5.23,5.23,0,0,1,244.08,52.63Z"/><path class="cls-2" d="M103.35,52.63H5.23A5.23,5.23,0,0,1,0,47.4H0a5.24,5.24,0,0,1,5.23-5.24h98.12Z"/><path class="cls-2" d="M21.08,43.23a24.47,24.47,0,0,1-7.5-1.07A13.84,13.84,0,0,1,8,38.86,14.38,14.38,0,0,1,4.55,33.1a26.48,26.48,0,0,1-1.18-8.42V0H14.71V25.1q0,4.24,1.47,6.32c1,1.38,2.66,2.06,5,2.06s4-.68,5-2.06,1.48-3.49,1.48-6.32V0H39V24.68A25.57,25.57,0,0,1,37.8,33.1a14.78,14.78,0,0,1-3.55,5.76,13.93,13.93,0,0,1-5.64,3.3A24.67,24.67,0,0,1,21.08,43.23Z"/><path class="cls-2" d="M56,11.16v3.66a11.3,11.3,0,0,1,4.22-3.54,12.32,12.32,0,0,1,5.17-1.06q4.78,0,7.41,2.8t2.63,8.42V42.16H64.78v-19c0-1.61-.3-2.71-.91-3.28A3.62,3.62,0,0,0,61.3,19a5,5,0,0,0-3.55,1.35,5.39,5.39,0,0,0-1,1.48,5.71,5.71,0,0,0-.38,2.36V42.16H45.65v-31Z"/><path class="cls-2" d="M92.42,0V7.74H81.61V0Zm-.06,11.16v31H81.67v-31Z"/><path class="cls-1" d="M147.84,65.55a15.52,15.52,0,0,1-1.54,7.06,12,12,0,0,1-4.72,4.93l8.62,16.83h-12L131.3,79.84h-6.14V94.37H114.35V52.2H131a25.56,25.56,0,0,1,8.15,1.12,13.81,13.81,0,0,1,5.16,3A10.4,10.4,0,0,1,147,60.59,15.8,15.8,0,0,1,147.84,65.55ZM125.16,71h5.55c2.28,0,3.89-.44,4.81-1.33a5,5,0,0,0,1.39-3.81,4.64,4.64,0,0,0-1.47-3.66c-1-.86-2.68-1.3-5.08-1.3h-5.2Z"/><path class="cls-1" d="M172,94.37V91a14.46,14.46,0,0,1-4.1,3.1,11.83,11.83,0,0,1-5.29,1.09,14.34,14.34,0,0,1-4-.53A9.18,9.18,0,0,1,155.31,93,8.43,8.43,0,0,1,153,90.09a9.55,9.55,0,0,1-.85-4.23A8.56,8.56,0,0,1,156.46,78a14.76,14.76,0,0,1,4.72-1.77,39.56,39.56,0,0,1,5.85-.74l4.67-.24V74a3.84,3.84,0,0,0-1.13-3.18,4.36,4.36,0,0,0-2.83-.89q-3.66,0-4.19,3.07l-9.63-.77a10.5,10.5,0,0,1,4.43-7.38q3.6-2.42,9.86-2.42a20.11,20.11,0,0,1,6.53.91A10.7,10.7,0,0,1,179,65.9a9.74,9.74,0,0,1,2.3,4,17.74,17.74,0,0,1,.71,5.23V94.37Zm-.35-13.11-3.43.17c-2.24.12-3.77.5-4.58,1.13A3,3,0,0,0,162.42,85a2.49,2.49,0,0,0,.92,2.18,4.34,4.34,0,0,0,2.57.65,6.06,6.06,0,0,0,4.1-1.39,5.17,5.17,0,0,0,1.63-4.16Z"/><path class="cls-1" d="M198.92,52.2v7.74H188.11V52.2Zm-.06,11.16v31H188.17v-31Z"/><path class="cls-1" d="M216,52.2V94.37H205.35V52.2Z"/><path class="cls-1" d="M230.81,84.45A3.32,3.32,0,0,0,232.46,87a7.16,7.16,0,0,0,3.31.68,5.44,5.44,0,0,0,2.95-.6,2,2,0,0,0,.89-1.83,2,2,0,0,0-.62-1.53,4.81,4.81,0,0,0-2.4-.89L233,82.2q-6-1-8.83-3.3a7.82,7.82,0,0,1-2.8-6.38A8.63,8.63,0,0,1,225,65q3.63-2.56,10.25-2.57a22.53,22.53,0,0,1,6.31.77,12.72,12.72,0,0,1,4.29,2.09,9.56,9.56,0,0,1,2.57,3,13.4,13.4,0,0,1,1.24,3.55l-9.87,1a4.06,4.06,0,0,0-1.35-2.39,5.17,5.17,0,0,0-3.19-.8,5,5,0,0,0-3,.68,2.05,2.05,0,0,0-.88,1.69,1.7,1.7,0,0,0,.74,1.47,7.25,7.25,0,0,0,2.8.89l3.54.65A28.52,28.52,0,0,1,244,76.53a12.07,12.07,0,0,1,3.54,2.07,6.64,6.64,0,0,1,1.89,2.75,10.42,10.42,0,0,1,.56,3.51q0,5.19-3.48,7.82t-10.63,2.63a30.09,30.09,0,0,1-5.5-.5,14.4,14.4,0,0,1-4.75-1.74,10.14,10.14,0,0,1-3.43-3.34,11,11,0,0,1-1.5-5.28Z"/><path class="cls-3" d="M114.47,47.4a6.9,6.9,0,0,1-6.9,6.9H99.14a6.9,6.9,0,0,1-6.9-6.9h0a6.9,6.9,0,0,1,6.9-6.91h8.43a6.9,6.9,0,0,1,6.9,6.91Z"/><path class="cls-1" d="M107.57,38.76h-4.22v3.47h4.22a5.17,5.17,0,1,1,0,10.33h-4.22V56h4.22a8.64,8.64,0,0,0,0-17.28Z"/><path class="cls-2" d="M103.35,52.56H99.14a5.17,5.17,0,1,1,0-10.33h4.21V38.76H99.14a8.64,8.64,0,1,0,0,17.28h4.21Z"/></g></g></svg>